<?xml version="1.0" standalone="no"?>
<!DOCTYPE svg PUBLIC "-//W3C//DTD SVG 20010904//EN"
 "http://www.w3.org/TR/2001/REC-SVG-20010904/DTD/svg10.dtd">
<svg version="1.0" xmlns="http://www.w3.org/2000/svg"
 width="452.000000pt" height="452.000000pt" viewBox="0 0 452.000000 452.000000"
 preserveAspectRatio="xMidYMid meet">
<metadata>
Created by potrace 1.11, written by Peter Selinger 2001-2013
</metadata>
<g transform="translate(0.000000,452.000000) scale(0.100000,-0.100000)"
fill="#000000" stroke="none">
<path d="M2735 3944 c-135 -28 -325 -123 -450 -225 -196 -161 -343 -308 -574
-574 -192 -221 -612 -803 -868 -1202 -10 -16 -11 -15 -6 7 36 174 217 648 388
1020 126 276 150 326 259 545 60 121 109 229 108 239 -1 11 -10 29 -22 40 -42
43 -234 26 -343 -28 -139 -71 -235 -219 -380 -586 -87 -224 -92 -244 -74 -307
11 -37 13 -62 6 -99 -14 -76 -267 -826 -491 -1454 -10 -30 -60 -139 -109 -241
-90 -187 -118 -272 -106 -321 19 -73 180 -42 295 57 86 75 242 297 357 510
132 246 314 535 593 940 52 75 342 465 394 529 160 197 170 210 333 401 172
202 237 259 264 232 21 -21 17 -38 -53 -232 -2 -5 -4 -14 -6 -20 -1 -5 -6 -18
-12 -28 -13 -26 -169 -450 -245 -667 -103 -296 -293 -904 -318 -1020 -2 -8
-24 -94 -49 -190 -52 -202 -87 -353 -91 -393 -10 -97 182 -84 367 24 106 62
133 90 152 157 111 398 297 811 515 1147 105 162 330 448 475 605 205 221 462
439 588 501 58 28 78 17 78 -42 0 -44 -49 -199 -110 -344 -22 -55 -42 -104
-44 -110 -3 -12 -9 -24 -74 -175 -57 -133 -76 -176 -143 -319 -27 -57 -49
-104 -49 -106 0 -2 -22 -50 -49 -107 -86 -182 -225 -511 -235 -553 -1 -5 -21
-66 -43 -135 -91 -276 -123 -437 -119 -605 2 -126 16 -191 48 -225 l19 -20 41
21 c47 24 171 146 194 192 9 16 18 49 20 72 4 47 13 106 18 114 2 3 7 23 10
45 27 168 195 706 276 881 5 11 29 70 53 130 102 252 391 850 521 1078 24 42
42 77 38 77 -3 0 2 8 10 18 8 9 47 76 87 147 39 72 87 157 106 190 86 147 109
214 94 269 -15 54 -49 70 -158 73 -112 3 -211 -15 -295 -55 -34 -16 -134 -83
-224 -149 -631 -465 -943 -783 -1269 -1293 -123 -193 -288 -479 -336 -582 -12
-27 -25 -48 -28 -48 -6 0 11 76 46 205 25 93 112 358 135 410 5 11 34 81 64
155 82 204 189 428 331 695 63 118 256 453 285 495 41 58 56 163 29 196 -30
36 -141 55 -224 38z"/>
</g>
</svg>
